<svg width="17" height="21" viewBox="0 0 17 21" fill="none" xmlns="http://www.w3.org/2000/svg">
<path d="M8.77055 20.3068C4.27196 17.3862 0.488267 9.99317 0.601603 4.61404C0.549294 2.11192 2.48473 0.167761 4.84736 1.78935C6.69562 3.27144 7.70693 5.54689 8.85774 7.56951C9.55519 4.93661 11.8829 -2.77027 15.3615 1.55395C17.3318 5.72997 16.4513 10.7429 15.2046 15.0323C14.5769 16.3139 14.1584 20.5509 12.2753 20.0452C10.4009 19.4873 12.2753 16.2877 12.3973 14.9189C13.4086 10.8737 14.6989 6.29665 13.2691 2.23397C12.746 2.24269 12.4671 3.00989 12.2317 3.39349C11.2204 5.51202 10.8019 7.81362 10.427 10.1065C10.2701 11.2922 8.76183 11.9025 7.92488 10.9696C6.12022 8.79877 5.13506 5.99152 3.17347 3.95146C2.28421 9.44392 5.47507 14.8928 8.64849 19.1386C8.92748 19.4611 9.6075 20.2981 8.77055 20.3068Z" fill="#D88591"/>
</svg>
